<svg width="298" height="522" viewBox="0 0 298 522" fill="none" xmlns="http://www.w3.org/2000/svg">
<path d="M167.874 1.46631C167.294 2.36603 166.651 6.15771 166.2 10.6563C165.363 19.9749 164.912 22.8668 161.694 40.4756C160.277 47.9947 159.119 54.9354 159.119 55.8994C159.119 56.8633 158.732 58.1487 158.217 58.8556C157.767 59.5625 156.737 64.3182 155.964 69.4594C155.256 74.6007 153.582 83.2766 152.359 88.7391C151.072 94.2017 149.141 102.878 148.046 108.019C145.664 119.201 144.763 120.808 140.45 120.872C138.841 120.872 135.686 121.258 133.369 121.772C131.051 122.286 127.317 122.864 125 123.057C118.241 123.764 110.837 125.371 105.559 127.299C102.791 128.327 99.8937 129.227 99.1212 129.291C96.3531 129.612 93.7781 127.234 89.9156 120.936C84.8944 112.646 69.5088 89.6389 64.9381 83.4051C62.9425 80.7059 60.8825 78.4566 60.3675 78.4566C59.8525 78.4566 58.4362 76.9785 57.1487 75.2433C46.0762 59.8196 31.785 48.1875 12.1506 38.5476C3.91063 34.4989 2.6875 34.1776 1.1425 35.7842C-1.11062 38.0335 0.112501 38.9975 11.7644 44.0102C22.3862 48.5731 28.2444 51.8506 35.39 57.249C42.085 62.2617 57.0844 77.7497 57.5994 80.1918C57.8569 81.1558 60.4319 85.0117 63.3287 88.7391C66.29 92.4666 73.1137 102.042 78.5856 109.947C84.0575 117.916 89.0144 125.114 89.7225 125.949C91.3962 128.134 91.2675 129.869 89.4006 129.869C83.8644 129.869 76.2038 134.239 74.0794 138.674C72.5987 141.694 72.1481 148.378 73.1781 151.72C73.6931 153.326 73.6931 153.326 72.2769 152.105C71.5687 151.398 70.925 151.205 70.925 151.591C70.925 151.977 71.6331 152.812 72.5344 153.39C73.4356 153.969 74.1437 154.997 74.1437 155.64C74.1437 156.861 74.015 156.861 72.1481 155.897C71.0537 155.318 70.0238 154.997 69.8306 155.19C69.6375 155.318 70.6675 156.09 72.1481 156.861C76.7188 159.174 74.9806 160.01 69.1225 158.403C68.5431 158.275 69.1869 158.724 70.6031 159.431C72.0194 160.138 73.5644 160.717 74.015 160.717C74.4012 160.717 74.7875 161.167 74.7875 161.745C74.7875 162.645 74.2081 162.773 71.2469 162.516C67.1269 162.195 67.32 162.902 71.5044 163.737C76.0106 164.573 75.6244 165.858 70.7962 165.922L66.7406 165.987L69.6375 166.629C71.2469 166.951 73.1137 167.336 73.8219 167.465C74.9162 167.722 75.3025 168.557 75.9463 172.413C76.9762 178.775 76.7188 180.896 74.5944 182.567C70.8606 185.523 69.6375 190.922 71.1825 197.605C71.7619 199.983 72.7919 203.068 73.5644 204.482C75.6244 208.53 82.255 214.7 87.4694 217.463C92.555 220.098 102.726 223.633 110.258 225.24C114.764 226.268 115.151 226.461 115.859 228.453C116.76 230.895 116.889 235.201 116.052 236.422C115.73 237 113.284 237.514 109.164 237.836C100.859 238.478 97.6406 239.764 95.9669 243.17C94.4862 246.062 94.6794 248.568 96.675 252.938C97.5119 254.866 97.8981 257.822 98.22 264.699C98.6062 272.668 98.4775 274.531 97.3187 279.094C95.8381 284.75 95.9669 286.035 97.9625 286.035C99.25 286.035 99.25 286.292 98.9281 294.197C98.2844 308.849 97.9625 312.898 96.9969 317.654C96.4175 320.224 96.16 323.052 96.3531 323.952C96.6106 325.044 95.9669 327.229 94.4219 330.571C92.2975 335.134 88.95 344.131 88.95 345.288C88.95 345.609 89.5294 346.38 90.1731 347.023C91.3962 348.244 91.3962 348.308 90.1731 352.871C89.465 355.442 88.95 358.012 89.0788 358.655C89.2075 359.233 88.1775 360.969 86.89 362.447C84.315 365.21 83.7356 367.46 85.4094 368.038C87.1475 368.745 89.2719 367.652 91.01 365.21C92.04 363.925 94.3575 360.84 96.2887 358.398C98.2844 356.02 99.9581 353.707 100.087 353.257C100.537 352.036 101.181 353.193 101.825 356.663C102.147 358.462 102.726 360.519 103.112 361.226C104.014 362.961 107.361 362.961 108.262 361.29C109.228 359.426 109.035 358.012 107.361 353.771C106.074 350.558 105.881 349.465 106.331 347.344C107.232 343.488 107.104 337.64 105.881 332.178C104.851 327.165 104.851 327.165 106.202 325.687C108.005 323.823 108.005 321.381 106.202 316.882C105.044 313.733 104.851 311.87 104.657 300.816C104.593 293.94 104.4 287.963 104.336 287.641C104.207 287.256 104.593 286.292 105.237 285.392C106.202 283.914 106.202 283.143 105.43 277.038C104.915 273.31 104.593 270.225 104.722 270.097C104.786 269.968 105.559 270.932 106.331 272.218C107.104 273.503 108.391 274.981 109.228 275.495C110.258 276.202 110.902 277.552 111.481 280.379C111.867 282.564 112.962 285.778 113.799 287.577C115.279 290.726 116.245 292.204 120.365 297.924C123.197 301.844 123.391 304.929 121.331 310.906C118.884 318.039 118.884 326.072 121.395 333.206C123.584 339.568 125.966 343.681 128.347 345.159L130.214 346.252L127.317 351.65C125.772 354.606 122.232 362.383 119.528 368.938C116.824 375.493 113.219 383.397 111.546 386.611C109.807 389.76 106.074 396.765 103.241 402.163C100.409 407.561 97.7694 413.024 97.3831 414.309C96.4819 417.522 97.3831 419.065 100.151 419.065H102.276L103.37 426.263C104.014 430.247 105.816 440.015 107.426 447.984C110.902 465.079 111.417 474.076 109.292 481.403C108.649 483.716 107.747 486.865 107.297 488.472L106.524 491.364L96.9325 493.677C88.6925 495.734 86.6325 495.991 82.3194 495.67C78.0062 495.413 77.0406 495.541 75.56 496.634C74.5944 497.34 72.7275 498.047 71.3756 498.304C64.9381 499.333 60.3675 507.237 62.8137 513.086C64.4231 517.07 66.3544 517.456 82.1262 517.584C95.4519 517.648 119.85 515.978 122.876 514.821C125.708 513.664 126.352 507.494 124.292 500.361C123.584 497.855 123.004 494.77 123.069 493.42C123.069 492.071 121.974 487.379 120.494 483.009C117.468 473.691 116.374 467.65 115.022 452.804C113.927 441.429 112.318 431.725 110.129 423.692L108.906 419.001L110.773 417.394C113.091 415.466 114.442 411.417 115.022 404.605C115.923 394.387 119.142 387.189 131.244 368.488C135.429 362.061 139.162 356.342 139.484 355.763C140.064 354.863 140.643 354.992 144.57 356.984C148.432 358.912 154.806 360.776 159.762 361.354C161.307 361.547 161.307 361.676 163.11 376.007C165.17 393.037 165.427 398.693 164.655 409.232L164.076 417.008L165.749 418.679C166.651 419.579 168.131 420.35 168.968 420.35C170.384 420.35 170.642 420.8 171.607 424.656C172.122 427.098 174.504 436.866 176.757 446.442C179.075 456.018 181.328 465.979 181.714 468.614C182.487 473.691 182.165 481.981 180.813 490.593C180.041 495.413 179.976 495.605 177.466 497.148C176.049 497.983 174.054 498.754 172.959 498.754C169.161 498.754 165.878 500.168 163.239 502.867C160.277 505.824 159.119 508.844 159.119 513.985C159.119 520.862 161.822 521.826 180.362 521.569C191.886 521.44 200.061 520.219 201.542 518.42C202.636 517.07 203.087 512.122 202.314 509.358C201.928 507.944 200.319 504.538 198.774 501.711C196.842 498.433 195.877 495.991 195.941 494.641C195.941 493.549 194.654 488.729 193.044 483.973C189.761 474.398 188.474 467.843 187.444 455.375C186.349 442.072 184.869 436.352 179.654 424.527C177.144 418.679 177.079 418.358 178.045 416.816C179.59 414.502 179.332 411.417 176.822 402.42C173.024 388.86 172.573 385.968 172.187 373.372L171.801 361.419L175.341 361.033C189.697 359.298 195.555 353.064 196.263 338.733C196.521 334.234 196.327 331.535 195.491 328.45C194.01 322.666 190.147 314.697 186.736 310.392C180.427 302.423 169.869 294.582 161.565 291.755C157.767 290.469 150.943 290.019 144.377 290.726C143.025 290.855 142.639 290.469 141.931 288.027C141.48 286.485 140.836 284.878 140.45 284.428C139.935 283.85 139.935 283.464 140.45 283.143C141.351 282.564 141.287 280.122 140.128 273.503C139.227 268.555 139.227 267.526 139.999 265.534C140.514 264.249 141.158 261.614 141.416 259.686C142.124 253.902 143.733 247.475 144.377 247.475C145.407 247.475 147.596 248.761 150.943 251.396C152.617 252.745 157.831 256.216 162.531 259.108C167.23 261.999 173.861 266.627 177.337 269.39C182.809 273.76 183.839 274.403 184.933 273.76C186.027 273.182 187.057 273.696 191.499 276.973C194.396 279.094 201.735 284.3 207.722 288.541C218.666 296.189 223.687 300.43 226.906 304.672C228.386 306.664 228.772 306.857 229.867 306.15C231.026 305.443 231.347 305.572 232.764 307.435C234.631 309.877 238.171 317.461 239.909 322.538C240.939 325.815 240.939 326.137 239.909 328.45C239.266 329.864 238.042 331.599 237.206 332.435C233.729 335.648 232.828 339.632 235.081 341.625C237.012 343.36 238.815 342.139 242.356 336.612C246.476 330.314 250.853 325.88 252.977 325.88C254.522 325.88 271.904 331.599 282.204 335.584C287.74 337.704 289.027 337.833 290.766 336.612C291.603 335.969 291.796 335.262 291.474 334.041C291.087 332.306 289.285 331.471 281.753 329.414C279.629 328.836 275.38 327.293 272.29 326.008C266.496 323.566 265.531 322.473 267.655 320.674C268.943 319.582 273.706 320.546 284.264 324.016C293.019 326.844 295.851 327.165 296.881 325.237C297.847 323.437 296.753 321.638 294.178 320.803C293.019 320.481 289.607 319.582 286.646 318.81C279.436 317.011 271.582 313.926 270.166 312.384C266.947 308.849 272.805 308.142 282.719 310.906C292.697 313.669 295.594 313.541 295.594 310.392C295.594 308.592 293.212 307.435 287.869 306.664C283.169 305.957 274.479 303.965 260.831 300.43C255.166 298.888 252.72 298.631 245.381 298.631L236.691 298.567V296.703C236.691 295.032 236.304 294.711 231.862 292.783C224.266 289.569 220.854 287.706 211.52 281.536C206.756 278.387 200.383 274.403 197.422 272.732C193.109 270.354 192.143 269.583 192.658 268.876C193.752 267.655 192.658 266.691 187.959 264.506C175.277 258.786 171.414 256.601 163.882 251.139C156.737 245.997 155.128 244.455 152.359 240.342C150.042 236.936 148.432 235.201 146.566 234.365C143.089 232.63 137.875 232.309 134.463 233.53C132.982 234.044 130.536 234.687 129.056 234.879C126.545 235.265 126.287 235.136 125.966 233.787C125.708 232.951 125.837 231.28 126.094 230.124L126.674 227.939L134.012 226.91C142.317 225.689 144.956 224.982 150.171 222.348C162.852 216.049 172.251 201.461 176.242 181.924C177.594 175.369 178.174 159.431 177.208 154.869C176.242 150.306 172.637 142.787 169.226 138.224C163.882 131.026 158.475 125.499 155.063 123.764C152.746 122.543 151.201 121.193 150.299 119.522L148.947 117.08L152.424 103.713C157.252 85.2045 160.535 68.881 160.792 62.1974C160.986 58.1487 161.951 53.0074 164.204 44.203C169.161 24.859 173.474 2.94446 172.637 1.33777C171.672 -0.3974 169.033 -0.33313 167.874 1.46631Z" fill="#005A99" fill-opacity="0.18"/>
</svg>
