<svg width="716" height="528" viewBox="0 0 716 528" fill="none" xmlns="http://www.w3.org/2000/svg">
<path d="M380.485 1.28412C375.089 3.052 371.885 5.75897 369.693 10.3995C368.569 12.7198 368.344 14.0457 368.457 16.7527L368.625 20.1779L364.522 24.0451C358.846 29.4038 355.361 34.0997 351.82 41.171C348.504 47.7452 346.368 54.485 345.3 61.3907L344.625 65.755L337.824 69.0145C325.572 74.8705 316.466 81.3893 306.855 91.2782C286.677 111.829 277.909 138.678 282.63 165.196C286.508 186.797 298.48 206.077 316.972 220.607C320.063 223.037 322.649 225.192 322.761 225.358C322.817 225.579 321.862 226.186 320.569 226.739C317.253 228.175 311.576 233.645 309.778 237.125C307.754 241.158 306.574 245.909 306.574 250.273C306.574 252.262 307.136 260.715 307.754 269.057C308.991 286.017 309.834 328.279 309.103 341.041L308.71 348.609L306.462 352.09C305.169 353.968 302.921 357.835 301.347 360.708L298.536 365.901L286.396 365.514C258.237 364.686 225.131 360.874 198.096 355.46C175.67 350.93 159.314 343.306 146.78 331.539C136.101 321.484 128.85 310.38 122.162 293.696C118.789 285.299 117.553 283.199 114.349 280.548C106.874 274.25 97.0376 278.172 94.3397 288.448C92.2601 296.403 95.9697 307.231 104.232 317.285C107.155 320.821 113.956 327.561 125.253 338.113C131.099 343.582 132.279 346.952 130.143 352.421C127.67 358.83 114.012 379.989 108.447 386.065C101.197 393.91 88.7753 400.153 66.0119 407.445C45.328 414.019 39.595 416.008 35.492 417.997L31.2203 420.041L21.7777 418.218C7.33272 415.401 1.5997 415.732 0.306963 419.378C-1.37922 424.184 3.90415 429.212 15.595 433.963C18.5739 435.178 21.047 436.338 21.047 436.504C21.047 436.725 20.0915 437.057 18.9674 437.278C15.876 437.83 9.862 440.316 7.1641 442.084C1.26247 446.006 1.82453 452.47 8.34443 455.674C9.862 456.392 14.0212 457.608 17.6184 458.326C46.7332 464.127 84.3913 459.099 113.113 445.564C126.714 439.156 130.649 435.454 144.195 416.782C161.169 393.358 170.555 382.806 176.794 379.933C181.234 377.889 188.204 377.116 198.321 377.558C215.127 378.221 221.253 379.602 249.3 388.662C272.288 396.12 286.171 399.821 302.921 403.081C314.836 405.346 321.019 407.556 320.344 409.213C319.108 412.417 311.014 438.106 307.979 448.382C299.604 476.833 293.028 506.61 291.679 522.521L291.286 527.051L272.906 527.161L254.583 527.272L278.752 527.603C292.073 527.769 334.565 527.769 373.234 527.658L443.492 527.493L443.604 525.449C443.661 524.344 443.998 520.974 444.279 517.935C446.358 496.39 447.876 460.149 447.426 443.907C447.033 431.864 446.302 419.212 445.628 414.296L445.347 411.754L449.113 411.699C456.644 411.589 461.928 408.274 463.67 402.584C466.705 392.529 460.972 359.382 451.417 331.318L447.82 320.932L450.574 323.583C458.106 330.82 472.775 346.731 473.562 348.554C474.574 350.819 477.047 353.029 478.565 353.029C479.07 353.029 479.857 353.692 480.307 354.521C480.757 355.349 483.623 359.493 486.714 363.802C494.19 374.133 494.864 375.127 498.237 381.812C502.171 389.546 506.611 396.065 510.152 399.159C518.19 406.285 530.218 408.661 542.19 405.512C544.663 404.849 546.574 402.639 546.574 400.484C546.574 397.777 544.157 395.789 536.288 392.087C532.185 390.098 528.251 388.054 527.464 387.391C526.171 386.342 526.115 386.231 526.958 385.237C529.15 382.806 533.703 371.867 535.895 363.802C539.942 348.499 540.897 332.809 539.717 298.613C538.649 267.399 539.042 257.731 541.909 247.511C544.775 237.512 551.351 231.656 561.187 230.496C570.349 229.446 575.239 230.33 611.492 239.777C638.021 246.738 653.59 249.666 666.63 250.108C682.705 250.715 692.091 248.008 704.625 239.224C714.799 232.098 717.328 226.628 714.405 217.955C713.562 215.524 712.494 212.265 711.988 210.773C708.391 199.835 696.251 191.935 677.871 188.454C663.988 185.802 653.422 185.139 613.965 184.532C595.923 184.2 579.398 183.758 577.262 183.427C560.232 181.051 550.171 173.151 546.855 159.506C546.349 157.627 545.731 151.219 545.45 145.308C545.169 139.397 544.775 133.43 544.55 132.049C543.145 122.05 537.974 110.338 532.579 105.034C530.499 102.99 527.857 101.112 525.384 99.9517C521.899 98.2943 521.113 98.1286 516.223 98.0733C512.063 98.0733 510.377 98.2943 508.747 99.123C504.588 101.167 502.733 105.034 503.52 110.172C503.913 112.548 505.993 116.249 513.918 128.624C515.548 131.165 516.785 133.32 516.672 133.375C516.56 133.43 513.356 133.375 509.478 133.264L502.452 133.043L498.799 126.083L495.145 119.066L495.651 115.089C495.988 112.161 495.932 109.841 495.258 106.029C492.785 91.4992 481.824 81.6103 466.817 80.2845C462.883 79.953 462.377 79.732 457.262 76.3621C451.305 72.4397 439.333 66.418 433.993 64.6501C428.766 62.9375 428.766 63.1033 432.251 59.2914C437.703 53.2697 445.347 47.9662 452.878 44.9829L457.431 43.1599L459.623 45.1487C463.22 48.2976 467.323 49.8445 471.988 49.8445C476.71 49.8445 479.295 48.9053 482.555 46.0326C489.019 40.2871 489.187 30.7297 482.949 24.0451C479.913 20.7856 476.991 19.1835 472.55 18.2444C466.536 16.9737 459.792 19.7912 456.588 24.8185L454.902 27.5255L449.899 28.1332C443.942 28.9066 436.635 30.8954 431.52 33.1605C422.808 37.0276 412.691 44.9829 405.497 53.6011L402.518 57.1921L390.939 57.3026C384.307 57.3578 377.225 57.6893 374.358 58.1312L369.412 58.9047L369.75 55.9767C370.48 49.6235 375.145 38.1325 378.855 33.4367C380.148 31.8346 380.316 31.7794 384.813 31.7794C388.86 31.7241 389.984 31.5031 393.188 30.0668C403.305 25.3709 405.609 14.2115 398.134 5.86945C394.48 1.72607 385.937 -0.483704 380.485 1.28412ZM518.752 137.021C519.932 138.236 523.754 147.518 524.935 152.213C527.576 162.599 528.644 176.963 527.239 183.316C525.665 190.332 526.452 195.249 529.543 197.956L530.724 198.951L529.375 202.763C527.689 207.458 526.958 212.872 526.902 220.275C526.846 236.02 524.597 250.936 517.291 283.365C513.356 300.767 511.67 312.7 509.984 335.185C509.59 340.102 509.141 344.024 508.916 343.914C508.747 343.803 507.23 341.538 505.6 338.886C502.677 334.246 502.621 334.025 503.239 331.981C503.801 330.102 503.745 329.439 502.733 327.285C501.44 324.357 493.347 316.181 480.026 304.358C468.279 293.972 459.23 282.923 453.834 272.371C452.541 269.83 449.843 263.587 447.82 258.56C444.841 250.991 443.436 247.566 441.019 241.931C440.906 241.71 442.705 240.384 444.953 238.948C447.202 237.512 450.743 235.026 452.766 233.424C454.789 231.821 458.162 229.833 460.298 229.004C477.103 222.375 492.841 209.502 500.991 195.636C506.724 185.913 509.197 176.576 509.197 164.367C509.197 155.086 508.354 150.28 505.319 141.275L503.464 135.806L510.658 136.027C516.166 136.137 518.077 136.413 518.752 137.021Z" fill="#74B1CF" fill-opacity="0.3"/>
</svg>
