<svg width="1765" height="1117" viewBox="0 0 1765 1117" fill="none" xmlns="http://www.w3.org/2000/svg">
<g filter="url(#filter0_f_64_30)">
<ellipse cx="882.5" cy="558.5" rx="832.5" ry="508.5" fill="#74B1CF" fill-opacity="0.21"/>
</g>
<path d="M417.366 860.255C417.06 860.412 416.647 860.745 416.449 861.039C416.107 861.49 415.945 861.549 414.884 861.549C413.912 861.549 413.696 861.49 413.696 861.235C413.696 861.059 413.552 860.784 413.39 860.647C412.905 860.235 412.761 860.333 413.066 860.824C413.21 861.079 413.282 861.353 413.21 861.412C413.156 861.49 411.105 861.549 408.659 861.549C395.759 861.549 383.795 862.941 371.992 865.804L369.06 866.51L367.135 866C364.94 865.393 363.213 865.079 362.115 865.079C360.01 865.079 358.463 865.981 358.463 867.236C358.463 867.765 358.409 867.844 358.157 867.726C355.153 866.353 348.748 866.059 344.951 867.118C342.091 867.903 340.202 869.158 339.266 870.922C338.816 871.746 338.762 872.04 338.762 873.629C338.762 875.354 338.78 875.452 339.608 877.256C340.076 878.276 340.885 879.707 341.389 880.433C341.893 881.159 342.289 881.786 342.253 881.825C342.217 881.845 341.263 882.492 340.13 883.237C338.223 884.492 338.115 884.59 338.601 884.688C339.068 884.786 339.122 884.865 339.068 885.473C338.96 886.983 335.938 891.806 331.692 897.238C329.155 900.493 323.902 906.259 323.452 906.259C322.858 906.259 319.044 907.396 316.813 908.219C313.881 909.318 309.509 911.651 307.008 913.455C304.615 915.2 301.97 917.946 301.125 919.613C299.883 922.024 297.886 923.103 292.903 924.005C289.808 924.574 289.79 924.593 291.176 925.221C291.805 925.515 292.075 925.75 292.075 926.005C292.075 927.201 289.466 929.809 282.27 935.771C277.43 939.791 275.145 941.967 272.537 945.065C259.331 960.773 252.512 977.146 250.695 997.442C250.371 1001.03 250.263 1010.62 250.497 1014.8C250.857 1021.13 251.757 1029.9 252.638 1035.82L252.962 1038.01L252.278 1038.76C251.433 1039.66 251.235 1040.39 251.235 1042.6C251.235 1044.64 251.019 1045.33 250.012 1046.31C249.058 1047.23 248.23 1047.7 246 1048.52C244.992 1048.88 244.092 1049.27 243.985 1049.39C243.589 1049.82 244.128 1049.96 245.442 1049.74C246.737 1049.54 247.223 1049.66 246.953 1050.11C246.881 1050.21 246 1051.03 244.992 1051.92C236.5 1059.37 231.211 1067.02 229.448 1074.43C228.854 1076.9 228.854 1080.78 229.43 1083.04C231.678 1091.65 240.224 1097.21 254.114 1099.14C257.064 1099.55 266.51 1099.72 270.162 1099.43C278.798 1098.72 285.886 1097.45 297.383 1094.53C310.678 1091.16 318.9 1089.92 329.677 1089.67C352.796 1089.16 372.568 1095.55 388.976 1108.86C389.984 1109.69 390.973 1110.45 391.189 1110.57C391.549 1110.78 391.567 1110.76 391.459 1110.25C390.865 1107.61 387.591 1103.35 383.507 1099.94C370.481 1089.06 351.015 1082.64 328.597 1081.84C324.621 1081.7 320.249 1081.92 314.384 1082.57C308.789 1083.17 306.27 1083.55 290.816 1086.08C272.663 1089.04 268.273 1089.53 260.752 1089.35C256.183 1089.25 254.258 1089.02 251.955 1088.21C249.58 1087.39 248.554 1086.68 246.539 1084.51C244.938 1082.76 244.524 1082.19 243.877 1080.78C242.185 1077.02 242.563 1073.94 245.172 1070.23C250.569 1062.58 267.607 1055.49 283.889 1054.09C286.498 1053.88 292.831 1053.96 293.91 1054.23C294.342 1054.33 294.468 1054.54 294.774 1055.66C295.188 1057.21 295.511 1057.72 296.267 1058.17C297.167 1058.7 299.578 1058.6 302.618 1057.94L305.155 1057.39L305.856 1057.76C306.432 1058.05 306.738 1058.47 307.476 1059.9C308.177 1061.21 308.591 1061.8 309.149 1062.19C310.588 1063.19 313.935 1063.56 324.01 1063.92C332.232 1064.19 335.56 1064.76 339.032 1066.47C342.217 1068.02 342.865 1068.11 347.974 1067.76C350.043 1067.6 350.403 1067.62 350.799 1067.9C351.176 1068.17 351.23 1068.33 351.14 1068.9C351.069 1069.47 351.122 1069.62 351.518 1069.9C351.914 1070.19 352.364 1070.25 353.911 1070.23C355.027 1070.21 355.908 1070.11 356.052 1069.98C356.196 1069.86 356.304 1069.41 356.304 1069C356.304 1068.08 356.232 1068.09 358.931 1068.62C360.01 1068.84 361.18 1069.02 361.539 1069.02C362.295 1069.02 362.889 1068.6 362.727 1068.19C362.637 1067.92 362.835 1067.9 364.094 1067.98C365.659 1068.08 366.829 1067.8 367.153 1067.23C367.279 1067.02 367.171 1066.74 366.667 1066.15C366.325 1065.74 365.516 1064.35 364.904 1063.07C363.644 1060.51 362.601 1059.21 361.755 1059.21C361.36 1059.19 361.144 1059.02 360.748 1058.33C360.064 1057.15 359.093 1056.66 356.88 1056.45C355.926 1056.35 351.122 1056.23 346.229 1056.17C336.999 1056.05 333.581 1055.88 330.9 1055.37C328.885 1055 326.456 1054.23 325.125 1053.56L324.064 1053.03L325.431 1052C326.187 1051.43 327.14 1050.78 327.572 1050.58C328.525 1050.13 332.466 1049.37 333.815 1049.39C335.038 1049.39 337.521 1050.09 340.382 1051.25C343.152 1052.39 344.88 1052.86 347.236 1053.17C349.377 1053.43 351.5 1053.21 353.12 1052.54C353.965 1052.19 354.073 1052.19 354.901 1052.49C355.512 1052.7 356.088 1052.76 356.736 1052.66C357.527 1052.56 357.743 1052.6 357.995 1052.92C358.157 1053.11 358.805 1053.54 359.416 1053.84C360.622 1054.45 360.1 1054.41 366.415 1054.33L368.178 1054.31L368.448 1053.72C368.592 1053.41 368.934 1053.07 369.168 1053.02C369.923 1052.82 369.995 1052.39 369.492 1050.88C369.24 1050.11 368.844 1048.8 368.61 1047.94C368.376 1047.09 368.106 1046.31 368.016 1046.21C367.944 1046.13 366.865 1045.88 365.641 1045.66C364.418 1045.45 362.115 1044.98 360.532 1044.6C356.808 1043.74 353.713 1043.25 348.928 1042.74C341.317 1041.96 339.59 1041.6 337.881 1040.5L337.071 1039.99L337.899 1038.07C339.248 1034.94 340.22 1032.33 340.903 1029.99C341.605 1027.64 342.271 1023.91 342.271 1022.29C342.289 1021.07 342.739 1019.78 344.052 1017.35C347.614 1010.74 348.748 1008.09 348.748 1006.25C348.748 1005.48 348.622 1005.19 347.866 1004.11C346.337 1001.97 346.499 1001.5 348.28 1002.83C348.946 1003.32 349.557 1003.72 349.665 1003.72C350.079 1003.72 350.583 1001.7 351.788 995.187C352.472 991.402 353.407 986.951 353.857 985.265C355.638 978.46 357.815 973.244 360.64 968.95L361.827 967.146L363.267 967.008C365.246 966.832 366.973 966.146 370.409 964.204C374.997 961.596 376.706 961.106 381.132 961.086C384.658 961.067 384.658 961.067 384.766 963.655C384.856 965.773 385.162 966.714 386.116 967.655C387.033 968.577 390.182 970.793 390.433 970.695C390.883 970.499 390.667 969.695 389.858 968.616C388.796 967.204 388.778 966.675 389.84 965.577C390.991 964.361 391.765 964.204 393.888 964.793C394.913 965.087 395.741 965.44 395.993 965.695C396.568 966.283 397.144 968.244 397.27 969.989C397.468 972.93 396.55 974.813 393.276 978.147C391.045 980.46 390.829 980.911 392.107 980.715C392.898 980.598 393.78 979.99 396.514 977.637C398.332 976.068 400.167 974.695 400.455 974.695C400.67 974.695 400.562 975.911 400.275 976.519C400.113 976.872 399.627 977.676 399.213 978.323C397.882 980.382 397.774 980.97 398.763 980.97C399.375 980.97 399.807 980.441 401.21 977.97C402.452 975.774 403.423 974.303 403.621 974.303C403.801 974.303 404.053 975.597 404.359 978.127C404.467 979.088 404.647 980.107 404.736 980.382C404.898 980.872 404.916 980.872 405.186 980.48C407.003 977.872 406.41 973.656 403.531 968.812C401.948 966.126 398.601 961.969 396.982 960.694C396.532 960.322 395.255 959.537 394.158 958.929C392.376 957.949 391.189 957.047 391.693 957.047C392.34 957.047 395.327 956.341 397.828 955.596C401.966 954.341 404.323 953.988 406.302 954.262C407.633 954.458 408.011 954.615 409.198 955.419C411.861 957.263 412.761 957.655 413.984 957.615C415.297 957.576 416.125 958.027 416.935 959.243C417.654 960.302 417.798 960.89 418.068 963.675C418.194 964.989 418.392 966.165 418.518 966.302C418.626 966.42 418.914 966.459 419.183 966.381C419.903 966.185 420.191 965.185 420.353 962.302C420.551 959.322 420.677 958.419 420.983 958.302C421.396 958.125 422.584 958.596 423.267 959.204C424.077 959.929 425.103 962.106 425.93 964.773C426.254 965.832 426.596 966.636 426.704 966.597C426.812 966.557 427.064 966.283 427.262 965.989C427.837 965.165 427.747 962.89 427.028 959.812C426.704 958.478 426.488 957.361 426.524 957.321C426.56 957.263 427.046 957.537 427.603 957.91C428.953 958.792 430.536 959.478 430.878 959.322C431.148 959.223 431.13 959.145 430.842 958.596C430.014 957.086 427.387 954.556 424.815 952.811C421.414 950.497 419.237 949.595 412.887 947.83C400.221 944.32 392.934 941.948 387.069 939.457C384.694 938.438 381.078 936.555 379.819 935.673L378.973 935.084L379.423 934.535C380.268 933.555 381.636 930.143 383.489 924.397C385.558 917.965 386.781 914.847 388.185 912.396C389.39 910.278 391.315 908.121 392.736 907.298C393.582 906.808 394.086 906.298 395.075 904.984C397.522 901.65 400.868 898.513 404.736 895.885C407.219 894.179 411.339 891.748 411.897 891.61C412.149 891.571 413.048 891.708 413.912 891.924C414.758 892.159 415.693 892.336 415.963 892.336C417.312 892.316 418.914 890.904 419.813 888.924C420.443 887.571 420.497 886.806 420.011 886.277C419.669 885.904 418.59 885.473 417.978 885.473C417.096 885.473 418.392 884.492 420.047 883.923C420.983 883.59 421.127 883.178 420.983 881.257L420.857 879.649L422.044 878.629C422.692 878.06 423.573 877.158 424.041 876.609L424.851 875.629L428.449 875.864C430.428 876.001 432.101 876.08 432.137 876.021C432.191 875.962 430.662 875.766 428.719 875.57C426.794 875.374 425.139 875.158 425.031 875.08C424.905 875.001 424.941 874.668 425.139 874.06C425.372 873.276 425.516 873.099 426.254 872.766C426.722 872.55 427.28 872.315 427.513 872.236C427.747 872.158 427.909 872.06 427.855 872.021C427.819 871.981 427.226 872.119 426.56 872.354C425.121 872.825 425.103 872.825 424.923 871.02L424.815 869.785L425.804 868.628C426.992 867.216 427.441 865.942 427.333 864.373C427.244 863.118 426.74 862.432 425.768 862.157C424.941 861.922 420.515 861.549 418.59 861.549C417.78 861.549 417.114 861.471 417.114 861.392C417.114 861.098 417.564 860.608 418.104 860.294C418.536 860.059 418.572 860 418.284 860C418.086 860 417.672 860.118 417.366 860.255Z" fill="#005A99" fill-opacity="0.23"/>
<g filter="url(#filter1_f_64_30)">
<ellipse cx="944" cy="573" rx="630" ry="425" fill="white" fill-opacity="0.32"/>
</g>
<g filter="url(#filter2_f_64_30)">
<ellipse cx="1099" cy="560.5" rx="442" ry="299.5" fill="#74B1CF" fill-opacity="0.25"/>
</g>
<defs>
<filter id="filter0_f_64_30" x="0" y="0" width="1765" height="1117" filterUnits="userSpaceOnUse" color-interpolation-filters="sRGB">
<feFlood flood-opacity="0" result="BackgroundImageFix"/>
<feBlend mode="normal" in="SourceGraphic" in2="BackgroundImageFix" result="shape"/>
<feGaussianBlur stdDeviation="25" result="effect1_foregroundBlur_64_30"/>
</filter>
<filter id="filter1_f_64_30" x="264" y="98" width="1360" height="950" filterUnits="userSpaceOnUse" color-interpolation-filters="sRGB">
<feFlood flood-opacity="0" result="BackgroundImageFix"/>
<feBlend mode="normal" in="SourceGraphic" in2="BackgroundImageFix" result="shape"/>
<feGaussianBlur stdDeviation="25" result="effect1_foregroundBlur_64_30"/>
</filter>
<filter id="filter2_f_64_30" x="607" y="211" width="984" height="699" filterUnits="userSpaceOnUse" color-interpolation-filters="sRGB">
<feFlood flood-opacity="0" result="BackgroundImageFix"/>
<feBlend mode="normal" in="SourceGraphic" in2="BackgroundImageFix" result="shape"/>
<feGaussianBlur stdDeviation="25" result="effect1_foregroundBlur_64_30"/>
</filter>
</defs>
</svg>
